<mxfile host="app.diagrams.net" modified="2022-06-06T11:39:35.599Z" agent="5.0 (Macintosh; Intel Mac OS X 10_15_7) AppleWebKit/537.36 (KHTML, like Gecko) Chrome/102.0.5005.61 Safari/537.36" etag="Nn6Qm58Cn2cjfEKYq-RQ" version="18.1.3" type="github">
  <diagram id="kRX3TJ4ZSRatoJqh-dYw" name="Page-1">
    <mxGraphModel dx="2032" dy="780" grid="1" gridSize="10" guides="1" tooltips="1" connect="1" arrows="1" fold="1" page="1" pageScale="1" pageWidth="827" pageHeight="1169" math="0" shadow="0">
      <root>
        <mxCell id="0" />
        <mxCell id="1" parent="0" />
        <mxCell id="vtiqP59wO7phixTwong5-3" style="edgeStyle=orthogonalEdgeStyle;rounded=0;orthogonalLoop=1;jettySize=auto;html=1;" parent="1" source="vtiqP59wO7phixTwong5-1" edge="1">
          <mxGeometry relative="1" as="geometry">
            <mxPoint x="220" y="275" as="targetPoint" />
          </mxGeometry>
        </mxCell>
        <mxCell id="vtiqP59wO7phixTwong5-4" value="加入人才库&lt;br&gt;关联职位" style="edgeLabel;html=1;align=center;verticalAlign=middle;resizable=0;points=[];" parent="vtiqP59wO7phixTwong5-3" vertex="1" connectable="0">
          <mxGeometry x="0.0125" y="1" relative="1" as="geometry">
            <mxPoint as="offset" />
          </mxGeometry>
        </mxCell>
        <mxCell id="vtiqP59wO7phixTwong5-1" value="hire&lt;br&gt;简历" style="shape=cylinder3;whiteSpace=wrap;html=1;boundedLbl=1;backgroundOutline=1;size=15;" parent="1" vertex="1">
          <mxGeometry x="20" y="235" width="60" height="80" as="geometry" />
        </mxCell>
        <mxCell id="vtiqP59wO7phixTwong5-16" style="edgeStyle=orthogonalEdgeStyle;rounded=0;orthogonalLoop=1;jettySize=auto;html=1;entryX=0.5;entryY=1;entryDx=0;entryDy=0;" parent="1" source="vtiqP59wO7phixTwong5-5" target="vtiqP59wO7phixTwong5-15" edge="1">
          <mxGeometry relative="1" as="geometry" />
        </mxCell>
        <mxCell id="vtiqP59wO7phixTwong5-5" value="上传简历（解析）" style="ellipse;whiteSpace=wrap;html=1;" parent="1" vertex="1">
          <mxGeometry x="160" y="455" width="120" height="80" as="geometry" />
        </mxCell>
        <mxCell id="vtiqP59wO7phixTwong5-18" style="edgeStyle=orthogonalEdgeStyle;rounded=0;orthogonalLoop=1;jettySize=auto;html=1;exitX=0.5;exitY=0;exitDx=0;exitDy=0;entryX=0.5;entryY=1;entryDx=0;entryDy=0;" parent="1" source="vtiqP59wO7phixTwong5-6" target="vtiqP59wO7phixTwong5-15" edge="1">
          <mxGeometry relative="1" as="geometry" />
        </mxCell>
        <mxCell id="vtiqP59wO7phixTwong5-6" value="手工填写" style="ellipse;whiteSpace=wrap;html=1;" parent="1" vertex="1">
          <mxGeometry x="340" y="455" width="120" height="80" as="geometry" />
        </mxCell>
        <mxCell id="vtiqP59wO7phixTwong5-15" value="&lt;div style=&quot;box-sizing:border-box;width:100%;background:#e4e4e4;padding:2px;&quot;&gt;人才表&lt;/div&gt;&lt;table style=&quot;width:100%;font-size:1em;&quot; cellpadding=&quot;2&quot; cellspacing=&quot;0&quot;&gt;&lt;tbody&gt;&lt;tr&gt;&lt;td&gt;1、标签&lt;br&gt;2、关联岗位（不冗余，实时查询）&lt;/td&gt;&lt;td&gt;&lt;/td&gt;&lt;/tr&gt;&lt;/tbody&gt;&lt;/table&gt;" style="verticalAlign=top;align=left;overflow=fill;html=1;" parent="1" vertex="1">
          <mxGeometry x="220" y="230" width="180" height="90" as="geometry" />
        </mxCell>
        <mxCell id="vtiqP59wO7phixTwong5-19" value="&lt;div style=&quot;box-sizing:border-box;width:100%;background:#e4e4e4;padding:2px;&quot;&gt;岗位表&lt;/div&gt;&lt;table style=&quot;width:100%;font-size:1em;&quot; cellpadding=&quot;2&quot; cellspacing=&quot;0&quot;&gt;&lt;tbody&gt;&lt;tr&gt;&lt;td&gt;1、客户公司&lt;br&gt;2、职位名称&lt;br&gt;3、招聘人数（前端先不展示）&lt;/td&gt;&lt;td&gt;&lt;/td&gt;&lt;/tr&gt;&lt;/tbody&gt;&lt;/table&gt;" style="verticalAlign=top;align=left;overflow=fill;html=1;" parent="1" vertex="1">
          <mxGeometry x="560" y="60" width="180" height="90" as="geometry" />
        </mxCell>
        <mxCell id="xcjFeVzdtD4dp9D_b4f6-2" style="edgeStyle=orthogonalEdgeStyle;rounded=0;orthogonalLoop=1;jettySize=auto;html=1;exitX=0.5;exitY=0;exitDx=0;exitDy=0;entryX=0.5;entryY=1;entryDx=0;entryDy=0;dashed=1;endArrow=none;endFill=0;" edge="1" parent="1" source="vtiqP59wO7phixTwong5-20" target="vtiqP59wO7phixTwong5-19">
          <mxGeometry relative="1" as="geometry" />
        </mxCell>
        <mxCell id="xcjFeVzdtD4dp9D_b4f6-3" style="edgeStyle=orthogonalEdgeStyle;rounded=0;orthogonalLoop=1;jettySize=auto;html=1;exitX=0;exitY=0.5;exitDx=0;exitDy=0;dashed=1;endArrow=none;endFill=0;" edge="1" parent="1" source="vtiqP59wO7phixTwong5-20" target="vtiqP59wO7phixTwong5-15">
          <mxGeometry relative="1" as="geometry" />
        </mxCell>
        <mxCell id="vtiqP59wO7phixTwong5-20" value="&lt;div style=&quot;box-sizing:border-box;width:100%;background:#e4e4e4;padding:2px;&quot;&gt;岗位-人才表（中间表 N:N）&lt;/div&gt;&lt;table style=&quot;width:100%;font-size:1em;&quot; cellpadding=&quot;2&quot; cellspacing=&quot;0&quot;&gt;&lt;tbody&gt;&lt;tr&gt;&lt;td&gt;1、岗位id&lt;br&gt;2、人才id&lt;/td&gt;&lt;td&gt;&lt;/td&gt;&lt;/tr&gt;&lt;/tbody&gt;&lt;/table&gt;" style="verticalAlign=top;align=left;overflow=fill;html=1;" parent="1" vertex="1">
          <mxGeometry x="560" y="230" width="180" height="90" as="geometry" />
        </mxCell>
        <mxCell id="xcjFeVzdtD4dp9D_b4f6-5" style="edgeStyle=orthogonalEdgeStyle;rounded=0;orthogonalLoop=1;jettySize=auto;html=1;exitX=0.5;exitY=0;exitDx=0;exitDy=0;entryX=0.5;entryY=1;entryDx=0;entryDy=0;endArrow=classic;endFill=1;" edge="1" parent="1" source="xcjFeVzdtD4dp9D_b4f6-4" target="vtiqP59wO7phixTwong5-20">
          <mxGeometry relative="1" as="geometry" />
        </mxCell>
        <mxCell id="xcjFeVzdtD4dp9D_b4f6-4" value="&lt;div style=&quot;box-sizing:border-box;width:100%;background:#e4e4e4;padding:2px;&quot;&gt;备注表&lt;/div&gt;&lt;table style=&quot;width:100%;font-size:1em;&quot; cellpadding=&quot;2&quot; cellspacing=&quot;0&quot;&gt;&lt;tbody&gt;&lt;tr&gt;&lt;td&gt;1、岗位-人才id&lt;br&gt;2、备注&lt;/td&gt;&lt;td&gt;&lt;/td&gt;&lt;/tr&gt;&lt;/tbody&gt;&lt;/table&gt;" style="verticalAlign=top;align=left;overflow=fill;html=1;" vertex="1" parent="1">
          <mxGeometry x="560" y="390" width="180" height="90" as="geometry" />
        </mxCell>
        <mxCell id="xcjFeVzdtD4dp9D_b4f6-6" value="人才表es搜索实时问题" style="text;html=1;strokeColor=none;fillColor=none;align=center;verticalAlign=middle;whiteSpace=wrap;rounded=0;" vertex="1" parent="1">
          <mxGeometry x="30" y="610" width="200" height="30" as="geometry" />
        </mxCell>
        <mxCell id="xcjFeVzdtD4dp9D_b4f6-16" style="edgeStyle=orthogonalEdgeStyle;rounded=0;orthogonalLoop=1;jettySize=auto;html=1;exitX=1;exitY=0.5;exitDx=0;exitDy=0;exitPerimeter=0;endArrow=classic;endFill=1;" edge="1" parent="1" source="xcjFeVzdtD4dp9D_b4f6-7" target="xcjFeVzdtD4dp9D_b4f6-15">
          <mxGeometry relative="1" as="geometry" />
        </mxCell>
        <mxCell id="xcjFeVzdtD4dp9D_b4f6-7" value="人才库" style="shape=cylinder3;whiteSpace=wrap;html=1;boundedLbl=1;backgroundOutline=1;size=15;" vertex="1" parent="1">
          <mxGeometry x="140" y="710" width="60" height="80" as="geometry" />
        </mxCell>
        <mxCell id="xcjFeVzdtD4dp9D_b4f6-12" style="edgeStyle=orthogonalEdgeStyle;rounded=0;orthogonalLoop=1;jettySize=auto;html=1;exitX=0.5;exitY=1;exitDx=0;exitDy=0;exitPerimeter=0;entryX=0.5;entryY=0;entryDx=0;entryDy=0;endArrow=classic;endFill=1;" edge="1" parent="1" source="xcjFeVzdtD4dp9D_b4f6-8" target="xcjFeVzdtD4dp9D_b4f6-9">
          <mxGeometry relative="1" as="geometry" />
        </mxCell>
        <mxCell id="xcjFeVzdtD4dp9D_b4f6-8" value="es搜索" style="shape=cylinder3;whiteSpace=wrap;html=1;boundedLbl=1;backgroundOutline=1;size=15;" vertex="1" parent="1">
          <mxGeometry x="580" y="710" width="60" height="80" as="geometry" />
        </mxCell>
        <mxCell id="xcjFeVzdtD4dp9D_b4f6-11" style="edgeStyle=orthogonalEdgeStyle;rounded=0;orthogonalLoop=1;jettySize=auto;html=1;exitX=0.5;exitY=1;exitDx=0;exitDy=0;endArrow=classic;endFill=1;" edge="1" parent="1" source="xcjFeVzdtD4dp9D_b4f6-9" target="xcjFeVzdtD4dp9D_b4f6-10">
          <mxGeometry relative="1" as="geometry" />
        </mxCell>
        <mxCell id="xcjFeVzdtD4dp9D_b4f6-9" value="人才列表" style="rounded=1;whiteSpace=wrap;html=1;" vertex="1" parent="1">
          <mxGeometry x="550" y="850" width="120" height="60" as="geometry" />
        </mxCell>
        <mxCell id="xcjFeVzdtD4dp9D_b4f6-13" style="edgeStyle=orthogonalEdgeStyle;rounded=0;orthogonalLoop=1;jettySize=auto;html=1;exitX=0;exitY=0.5;exitDx=0;exitDy=0;entryX=0.5;entryY=1;entryDx=0;entryDy=0;entryPerimeter=0;endArrow=classic;endFill=1;" edge="1" parent="1" source="xcjFeVzdtD4dp9D_b4f6-10" target="xcjFeVzdtD4dp9D_b4f6-7">
          <mxGeometry relative="1" as="geometry" />
        </mxCell>
        <mxCell id="xcjFeVzdtD4dp9D_b4f6-14" value="mysql保存" style="edgeLabel;html=1;align=center;verticalAlign=middle;resizable=0;points=[];" vertex="1" connectable="0" parent="xcjFeVzdtD4dp9D_b4f6-13">
          <mxGeometry x="-0.447" relative="1" as="geometry">
            <mxPoint as="offset" />
          </mxGeometry>
        </mxCell>
        <mxCell id="xcjFeVzdtD4dp9D_b4f6-10" value="用户编辑" style="ellipse;whiteSpace=wrap;html=1;" vertex="1" parent="1">
          <mxGeometry x="550" y="970" width="120" height="80" as="geometry" />
        </mxCell>
        <mxCell id="xcjFeVzdtD4dp9D_b4f6-18" style="edgeStyle=orthogonalEdgeStyle;rounded=0;orthogonalLoop=1;jettySize=auto;html=1;exitX=1;exitY=0.5;exitDx=0;exitDy=0;entryX=0;entryY=0.5;entryDx=0;entryDy=0;entryPerimeter=0;endArrow=classic;endFill=1;" edge="1" parent="1" source="xcjFeVzdtD4dp9D_b4f6-15" target="xcjFeVzdtD4dp9D_b4f6-8">
          <mxGeometry relative="1" as="geometry" />
        </mxCell>
        <mxCell id="xcjFeVzdtD4dp9D_b4f6-15" value="canal" style="rhombus;whiteSpace=wrap;html=1;" vertex="1" parent="1">
          <mxGeometry x="350" y="790" width="80" height="80" as="geometry" />
        </mxCell>
        <mxCell id="xcjFeVzdtD4dp9D_b4f6-19" value="canal存在延迟问题" style="text;html=1;strokeColor=none;fillColor=none;align=center;verticalAlign=middle;whiteSpace=wrap;rounded=0;" vertex="1" parent="1">
          <mxGeometry x="335" y="870" width="110" height="30" as="geometry" />
        </mxCell>
      </root>
    </mxGraphModel>
  </diagram>
</mxfile>
